{"title":"When Evening Falls on Bucharest or Metabolism (2013)","uid":11757227,"size":1107033624,"categoryP":"video","categoryS":"movies","magnet":"?xt=urn:btih:a43304768181f85adbb39d6a4a099722a99772bf&amp;dn=When+Evening+Falls+on+Bucharest+or+Metabolism+%282013%29&amp;tr=udp%3A%2F%2Ftracker.openbittorrent.com%3A80&amp;tr=udp%3A%2F%2Fopen.demonii.com%3A1337&amp;tr=udp%3A%2F%2Ftracker.coppersurfer.tk%3A6969&amp;tr=udp%3A%2F%2Fexodus.desync.com%3A6969","seeders":11,"leechers":1,"uploader":"rpessoa","files":3,"time":1426445321,"description":"Focused on a director and his leading actress while they are off the set. They discuss the discrepancies between film and digital cinema, Western and Eastern food, and try to capture an unfiltered (and seemingly impossible) sense of &quot;reality&quot; on film. Written by Alec\n &lt;a href=&quot;\nhttp://www.imdb.com/title/tt3102906/&quot; rel=&quot;nofollow&quot; target=&quot;_NEW&quot;&gt;\nhttp://www.imdb.com/title/tt3102906/&lt;/a&gt;\n\nLanguage: Romanian\nSubs: Portuguese, English, Turkish, French\n\nGeneral\nUnique ID                                : 170167109212773522177827451150233567261 (0x8004FE3CFFB7F606B754A6F91A0D001D)\nComplete name                            : Corneliu Porumboiu, When Evening Falls on Bucharest or Metabolism (2013).mkv\nFormat                                   : Matroska\nFormat version                           : Version 4 / Version 2\nFile size                                : 1.03 GiB\nDuration                                 : 1h 25mn\nOverall bit rate                         : 1 728 Kbps\nEncoded date                             : UTC 2015-01-10 06:37:40\nWriting application                      : mkvmerge v7.4.0 ('Circles') 64bit built on Dec 12 2014 12:19:56\nWriting library                          : libebml v1.3.0 + libmatroska v1.4.1\nDURATION                                 : 01:21:37.114000000\nNUMBER_OF_FRAMES                         : 816\nNUMBER_OF_BYTES                          : 936810\n_STATISTICS_WRITING_APP                  : mkvmerge v7.4.0 ('Circles') 64bit built on Dec 12 2014 12:19:56\n_STATISTICS_WRITING_DATE_UTC             : 2015-01-10 06:37:40\n_STATISTICS_TAGS                         : BPS DURATION NUMBER_OF_FRAMES NUMBER_OF_BYTES\n\nVideo\nID                                       : 1\nFormat                                   : AVC\nFormat/Info                              : Advanced Video Codec\nFormat profile                           : &lt;a class=&quot;__cf_email__&quot; href=&quot;/cdn-cgi/l/email-protection&quot; data-cfemail=&quot;1b53727c735b5728352a&quot;&gt;[email&amp;#160;protected]&lt;/a&gt;&lt;script cf-hash='f9e31' type=&quot;text/javascript&quot;&gt;\n/* &lt;![CDATA[ */!function(){try{var t=&quot;currentScript&quot;in document?document.currentScript:function(){for(var t=document.getElementsByTagName(&quot;script&quot;),e=t.length;e--;)if(t[e].getAttribute(&quot;cf-hash&quot;))return t[e]}();if(t&amp;&amp;t.previousSibling){var e,r,n,i,c=t.previousSibling,a=c.getAttribute(&quot;data-cfemail&quot;);if(a){for(e=&quot;&quot;,r=parseInt(a.substr(0,2),16),n=2;a.length-n;n+=2)i=parseInt(a.substr(n,2),16)^r,e+=String.fromCharCode(i);e=document.createTextNode(e),c.parentNode.replaceChild(e,c)}}}catch(u){}}();/* ]]&gt; */&lt;/script&gt;\nFormat settings, CABAC                   : Yes\nFormat settings, ReFrames                : 12 frames\nCodec ID                                 : V_MPEG4/ISO/AVC\nDuration                                 : 1h 25mn\nBit rate                                 : 1 502 Kbps\nWidth                                    : 720 pixels\nHeight                                   : 428 pixels\nDisplay aspect ratio                     : 2.40:1\nFrame rate mode                          : Constant\nFrame rate                               : 25.000 fps\nColor space                              : YUV\nChroma subsampling                       : 4:2:0\nBit depth                                : 8 bits\nScan type                                : Progressive\nBits/(Pixel*Frame)                       : 0.195\nStream size                              : 917 MiB (87%)\nWriting library                          : x264 core 144 r2525 40bb568\nEncoding settings                        : cabac=1 / ref=12 / deblock=1:-3:-3 / analyse=0x3:0x133 / me=umh / subme=11 / psy=1 / psy_rd=1.00:0.15 / mixed_ref=1 / me_range=32 / chroma_me=1 / trellis=2 / 8x8dct=1 / cqm=0 / deadzone=21,11 / fast_pskip=0 / chroma_qp_offset=-3 / threads=12 / lookahead_threads=3 / sliced_threads=0 / nr=0 / decimate=0 / interlaced=0 / bluray_compat=0 / constrained_intra=0 / bframes=11 / b_pyramid=2 / b_adapt=2 / b_bias=0 / direct=3 / weightb=1 / open_gop=0 / weightp=2 / keyint=250 / keyint_min=25 / scenecut=40 / intra_refresh=0 / rc_lookahead=100 / rc=crf / mbtree=0 / crf=16.0 / qcomp=0.60 / qpmin=0 / qpmax=69 / qpstep=4 / vbv_maxrate=17500 / vbv_bufsize=17500 / crf_max=0.0 / nal_hrd=none / filler=0 / ip_ratio=1.40 / pb_ratio=1.30 / aq=1:1.00\nLanguage                                 : English\nDefault                                  : Yes\nForced                                   : No\nDURATION                                 : 01:25:23.600000000\nNUMBER_OF_FRAMES                         : 128090\nNUMBER_OF_BYTES                          : 978992138\n_STATISTICS_WRITING_APP                  : mkvmerge v7.4.0 ('Circles') 64bit built on Dec 12 2014 12:19:56\n_STATISTICS_WRITING_DATE_UTC             : 2015-01-10 06:37:40\n_STATISTICS_TAGS                         : BPS DURATION NUMBER_OF_FRAMES NUMBER_OF_BYTES\n\nAudio\nID                                       : 2\nFormat                                   : AC-3\nFormat/Info                              : Audio Coding 3\nMode extension                           : CM (complete main)\nFormat settings, Endianness              : Big\nCodec ID                                 : A_AC3\nDuration                                 : 1h 25mn\nBit rate mode                            : Constant\nBit rate                                 : 192 Kbps\nChannel(s)                               : 2 channels\nChannel positions                        : Front: L R\nSampling rate                            : 48.0 KHz\nBit depth                                : 16 bits\nCompression mode                         : Lossy\nStream size                              : 117 MiB (11%)\nDefault                                  : Yes\nForced                                   : No\n\nText #1\nID                                       : 3\nFormat                                   : VobSub\nMuxing mode                              : zlib\nCodec ID                                 : S_VOBSUB\nCodec ID/Info                            : The same subtitle format used on DVDs\nLanguage                                 : Turkish\nDefault                                  : Yes\nForced                                   : No\n\nText #2\nID                                       : 4\nFormat                                   : VobSub\nMuxing mode                              : zlib\nCodec ID                                 : S_VOBSUB\nCodec ID/Info                            : The same subtitle format used on DVDs\nLanguage                                 : English\nDefault                                  : No\nForced                                   : No\n\nText #3\nID                                       : 5\nFormat                                   : VobSub\nMuxing mode                              : zlib\nCodec ID                                 : S_VOBSUB\nCodec ID/Info                            : The same subtitle format used on DVDs\nLanguage                                 : French\nDefault                                  : No\nForced                                   : No\n\nText #4\nID                                       : 6\nFormat                                   : VobSub\nMuxing mode                              : zlib\nCodec ID                                 : S_VOBSUB\nCodec ID/Info                            : The same subtitle format used on DVDs\nDefault                                  : No\nForced                                   : No","torrent":{"xt":"urn:btih:a43304768181f85adbb39d6a4a099722a99772bf","amp;dn":"When+Evening+Falls+on+Bucharest+or+Metabolism+%282013%29","amp;tr":["udp%3A%2F%2Ftracker.openbittorrent.com%3A80","udp%3A%2F%2Fopen.demonii.com%3A1337","udp%3A%2F%2Ftracker.coppersurfer.tk%3A6969","udp%3A%2F%2Fexodus.desync.com%3A6969"],"infoHash":"a43304768181f85adbb39d6a4a099722a99772bf","infoHashBuffer":{"type":"Buffer","data":[164,51,4,118,129,129,248,90,219,179,157,106,74,9,151,34,169,151,114,191]},"announce":[],"urlList":[]}}